<mxfile host="app.diagrams.net" modified="2020-10-08T01:14:19.323Z" agent="5.0 (Windows NT 10.0; Win64; x64) AppleWebKit/537.36 (KHTML, like Gecko) Chrome/85.0.4183.121 Safari/537.36" etag="B-G5LZD-609iEpaWnsWM" version="13.7.8" type="github">
  <diagram id="HnuSA87M3PJG01zhBdf5" name="Page-1">
    <mxGraphModel dx="1422" dy="762" grid="1" gridSize="10" guides="1" tooltips="1" connect="1" arrows="1" fold="1" page="1" pageScale="1" pageWidth="850" pageHeight="1100" math="0" shadow="0">
      <root>
        <mxCell id="0" />
        <mxCell id="1" parent="0" />
        <mxCell id="8ORKqLpo0yyQ04rci0zG-6" value="Savings" style="swimlane;fontStyle=1;align=center;verticalAlign=top;childLayout=stackLayout;horizontal=1;startSize=26;horizontalStack=0;resizeParent=1;resizeParentMax=0;resizeLast=0;collapsible=1;marginBottom=0;" parent="1" vertex="1">
          <mxGeometry x="10" y="270" width="410" height="130" as="geometry" />
        </mxCell>
        <mxCell id="8ORKqLpo0yyQ04rci0zG-7" value="-isLoyal: boolean" style="text;strokeColor=none;fillColor=none;align=left;verticalAlign=top;spacingLeft=4;spacingRight=4;overflow=hidden;rotatable=0;points=[[0,0.5],[1,0.5]];portConstraint=eastwest;" parent="8ORKqLpo0yyQ04rci0zG-6" vertex="1">
          <mxGeometry y="26" width="410" height="26" as="geometry" />
        </mxCell>
        <mxCell id="8ORKqLpo0yyQ04rci0zG-8" value="" style="line;strokeWidth=1;fillColor=none;align=left;verticalAlign=middle;spacingTop=-1;spacingLeft=3;spacingRight=3;rotatable=0;labelPosition=right;points=[];portConstraint=eastwest;" parent="8ORKqLpo0yyQ04rci0zG-6" vertex="1">
          <mxGeometry y="52" width="410" height="8" as="geometry" />
        </mxCell>
        <mxCell id="8ORKqLpo0yyQ04rci0zG-9" value="+ Savings(Profile holder, double balance, Date dateOpen, boolean isLoyal)&#xa;+ monthlyInterest(): double&#xa;+ monthlyFee(): fee&#xa;+ getLoyalty(): boolean&#xa;" style="text;strokeColor=none;fillColor=none;align=left;verticalAlign=top;spacingLeft=4;spacingRight=4;overflow=hidden;rotatable=0;points=[[0,0.5],[1,0.5]];portConstraint=eastwest;" parent="8ORKqLpo0yyQ04rci0zG-6" vertex="1">
          <mxGeometry y="60" width="410" height="70" as="geometry" />
        </mxCell>
        <mxCell id="8ORKqLpo0yyQ04rci0zG-10" value="Account" style="swimlane;fontStyle=3;align=center;verticalAlign=top;childLayout=stackLayout;horizontal=1;startSize=26;horizontalStack=0;resizeParent=1;resizeParentMax=0;resizeLast=0;collapsible=1;marginBottom=0;" parent="1" vertex="1">
          <mxGeometry x="250" y="10" width="320" height="250" as="geometry" />
        </mxCell>
        <mxCell id="8ORKqLpo0yyQ04rci0zG-11" value="-holder: Profile&#xa;-balance: double&#xa;-dateOpen:Date" style="text;strokeColor=none;fillColor=none;align=left;verticalAlign=top;spacingLeft=4;spacingRight=4;overflow=hidden;rotatable=0;points=[[0,0.5],[1,0.5]];portConstraint=eastwest;" parent="8ORKqLpo0yyQ04rci0zG-10" vertex="1">
          <mxGeometry y="26" width="320" height="54" as="geometry" />
        </mxCell>
        <mxCell id="8ORKqLpo0yyQ04rci0zG-12" value="" style="line;strokeWidth=1;fillColor=none;align=left;verticalAlign=middle;spacingTop=-1;spacingLeft=3;spacingRight=3;rotatable=0;labelPosition=right;points=[];portConstraint=eastwest;" parent="8ORKqLpo0yyQ04rci0zG-10" vertex="1">
          <mxGeometry y="80" width="320" height="8" as="geometry" />
        </mxCell>
        <mxCell id="8ORKqLpo0yyQ04rci0zG-13" value="+ Account(Profile holder,doublr balance, Date dateOpen)&#xa;+ debit(double amount):void&#xa;+ credit(double amount):void&#xa;+ toString(): String&#xa;+ monthlyInterest(): double&#xa;+ monthlyFee(): double&#xa;+ getBalance(): double&#xa;+ equals(Object obj)&#xa;" style="text;strokeColor=none;fillColor=none;align=left;verticalAlign=top;spacingLeft=4;spacingRight=4;overflow=hidden;rotatable=0;points=[[0,0.5],[1,0.5]];portConstraint=eastwest;fontStyle=0" parent="8ORKqLpo0yyQ04rci0zG-10" vertex="1">
          <mxGeometry y="88" width="320" height="162" as="geometry" />
        </mxCell>
        <mxCell id="8ORKqLpo0yyQ04rci0zG-21" value="Checking" style="swimlane;fontStyle=1;align=center;verticalAlign=top;childLayout=stackLayout;horizontal=1;startSize=26;horizontalStack=0;resizeParent=1;resizeParentMax=0;resizeLast=0;collapsible=1;marginBottom=0;" parent="1" vertex="1">
          <mxGeometry x="460" y="270" width="450" height="130" as="geometry" />
        </mxCell>
        <mxCell id="8ORKqLpo0yyQ04rci0zG-22" value="-directDeposit: boolean" style="text;strokeColor=none;fillColor=none;align=left;verticalAlign=top;spacingLeft=4;spacingRight=4;overflow=hidden;rotatable=0;points=[[0,0.5],[1,0.5]];portConstraint=eastwest;" parent="8ORKqLpo0yyQ04rci0zG-21" vertex="1">
          <mxGeometry y="26" width="450" height="26" as="geometry" />
        </mxCell>
        <mxCell id="8ORKqLpo0yyQ04rci0zG-23" value="" style="line;strokeWidth=1;fillColor=none;align=left;verticalAlign=middle;spacingTop=-1;spacingLeft=3;spacingRight=3;rotatable=0;labelPosition=right;points=[];portConstraint=eastwest;" parent="8ORKqLpo0yyQ04rci0zG-21" vertex="1">
          <mxGeometry y="52" width="450" height="8" as="geometry" />
        </mxCell>
        <mxCell id="8ORKqLpo0yyQ04rci0zG-24" value="+ Checking(Profile holder,double balance, Date dateOpen, boolean directDeposit)&#xa;+ monthlyInterest(): double&#xa;+ monthlyFee(): double&#xa;+ getDirectDeposit(): boolean" style="text;strokeColor=none;fillColor=none;align=left;verticalAlign=top;spacingLeft=4;spacingRight=4;overflow=hidden;rotatable=0;points=[[0,0.5],[1,0.5]];portConstraint=eastwest;" parent="8ORKqLpo0yyQ04rci0zG-21" vertex="1">
          <mxGeometry y="60" width="450" height="70" as="geometry" />
        </mxCell>
        <mxCell id="8ORKqLpo0yyQ04rci0zG-17" value="MoneyMarket" style="swimlane;fontStyle=1;align=center;verticalAlign=top;childLayout=stackLayout;horizontal=1;startSize=26;horizontalStack=0;resizeParent=1;resizeParentMax=0;resizeLast=0;collapsible=1;marginBottom=0;" parent="1" vertex="1">
          <mxGeometry x="180" y="430" width="400" height="150" as="geometry" />
        </mxCell>
        <mxCell id="8ORKqLpo0yyQ04rci0zG-18" value="-withdrawals: int" style="text;strokeColor=none;fillColor=none;align=left;verticalAlign=top;spacingLeft=4;spacingRight=4;overflow=hidden;rotatable=0;points=[[0,0.5],[1,0.5]];portConstraint=eastwest;" parent="8ORKqLpo0yyQ04rci0zG-17" vertex="1">
          <mxGeometry y="26" width="400" height="26" as="geometry" />
        </mxCell>
        <mxCell id="8ORKqLpo0yyQ04rci0zG-19" value="" style="line;strokeWidth=1;fillColor=none;align=left;verticalAlign=middle;spacingTop=-1;spacingLeft=3;spacingRight=3;rotatable=0;labelPosition=right;points=[];portConstraint=eastwest;" parent="8ORKqLpo0yyQ04rci0zG-17" vertex="1">
          <mxGeometry y="52" width="400" height="8" as="geometry" />
        </mxCell>
        <mxCell id="8ORKqLpo0yyQ04rci0zG-20" value="+ MoneyMarket(Profile holder, double balance, Date dateOpen)&#xa;+ monthlyInterest(): double&#xa;+ monthlyFee(): fee&#xa;+ setWithdrawals(int withdrawals): void&#xa;+ getWithdrawals(): int" style="text;strokeColor=none;fillColor=none;align=left;verticalAlign=top;spacingLeft=4;spacingRight=4;overflow=hidden;rotatable=0;points=[[0,0.5],[1,0.5]];portConstraint=eastwest;" parent="8ORKqLpo0yyQ04rci0zG-17" vertex="1">
          <mxGeometry y="60" width="400" height="90" as="geometry" />
        </mxCell>
        <mxCell id="QNcrNwa_ISNfp8zShLj_-3" value="Extends" style="endArrow=block;endSize=16;endFill=0;html=1;exitX=0.371;exitY=-0.015;exitDx=0;exitDy=0;exitPerimeter=0;entryX=-0.012;entryY=0.877;entryDx=0;entryDy=0;entryPerimeter=0;" edge="1" parent="1" source="8ORKqLpo0yyQ04rci0zG-6" target="8ORKqLpo0yyQ04rci0zG-13">
          <mxGeometry x="-0.6553" y="39" width="160" relative="1" as="geometry">
            <mxPoint x="140" y="260" as="sourcePoint" />
            <mxPoint x="246" y="230" as="targetPoint" />
            <Array as="points">
              <mxPoint x="162" y="240" />
            </Array>
            <mxPoint x="1" as="offset" />
          </mxGeometry>
        </mxCell>
        <mxCell id="QNcrNwa_ISNfp8zShLj_-7" value="Extends" style="endArrow=block;endSize=16;endFill=0;html=1;exitX=0.378;exitY=-0.023;exitDx=0;exitDy=0;exitPerimeter=0;entryX=1;entryY=0.809;entryDx=0;entryDy=0;entryPerimeter=0;" edge="1" parent="1" source="8ORKqLpo0yyQ04rci0zG-21" target="8ORKqLpo0yyQ04rci0zG-13">
          <mxGeometry y="140" width="160" relative="1" as="geometry">
            <mxPoint x="670" y="220" as="sourcePoint" />
            <mxPoint x="830" y="220" as="targetPoint" />
            <Array as="points">
              <mxPoint x="630" y="229" />
            </Array>
            <mxPoint as="offset" />
          </mxGeometry>
        </mxCell>
        <mxCell id="QNcrNwa_ISNfp8zShLj_-8" value="Extends" style="endArrow=block;endSize=16;endFill=0;html=1;entryX=0.575;entryY=0.994;entryDx=0;entryDy=0;entryPerimeter=0;exitX=0.635;exitY=0;exitDx=0;exitDy=0;exitPerimeter=0;" edge="1" parent="1" source="8ORKqLpo0yyQ04rci0zG-17" target="8ORKqLpo0yyQ04rci0zG-13">
          <mxGeometry width="160" relative="1" as="geometry">
            <mxPoint x="434" y="370" as="sourcePoint" />
            <mxPoint x="800" y="390" as="targetPoint" />
            <Array as="points" />
          </mxGeometry>
        </mxCell>
      </root>
    </mxGraphModel>
  </diagram>
</mxfile>
